
    <svg xmlns="http://www.w3.org/2000/svg" viewBox="0 0 142.3 31.2" fill="#fff">
        <path d="M142.3 5.2l-.1 1.2-.3 1.2-1.6.5h-2.6v.5h.1l.2.3 1.3-.1c.7-.1 1.2 0 1.6.3.3.1.5.5.7 1.1.2.6.3 1.1.2 1.7-.3.8-.8 1.3-1.7 1.6h-35.6c-.2 0-.8.2-1.8.6l-4.4.5H87.5l-6.6.1H70l-2.2-.1-1.2-.4h-3l-1.2-.1-1.8-.1H59l-1 .1-.8.5c-.8.6-1.4.8-1.8.8l-.7-.3-1.3-.4-1.7-.4-1.2-.1h-1.8c-.9.1-1.5.2-1.8.5-.2 0-.5.3-.8.9l-1.3 1.3c-.5.5-1 .8-1.5.9h-.8l-.6.3-.4.1H40l-2 .1-2.1.2c-.6.1-1 .2-1.1.4l-.5 1-1 2.2-1.4 2.8-1.4 2.6c0 .7.1 1.2.2 1.4l.2.6.3.3.5.4.3.6-.2.3-.8.3-1 .1-1.4-.1-2.1-.5-2.4-.4-1.9-.7c-.6-.1-1-.3-1-.4l-.1-.2c-.2-.1-.3-.4-.3-.7v-.4l.9-1.5 1.6-2.9 1.6-3 .8-1.6-.1-1.1-.4-.9-1.5-.4c-.6-.1-1.1-.1-1.4 0l-1-.1h-.2v-.5l.1-.3.1-.2-1.8.4-3.5.8-3.3.9-1.7.3-.5.5-.8 1-.6 1-.6 1.4-.6.8-.3.6-.8.6-1.8.8-3.6 1.5-1-.3L0 7.1l7.8-1.2.6-.2.4-.3.3-.4 25.6-2.3V3l.5.7.4.3.2.1.2-.2.3-.3v-.7h.2L38.1.6V.5h.1l.1-.2.1-.1H40l.1.2h.3v.4c.3.2.5.4.8.4l.5.3h1.6l1.3.2c.3 0 .5.2.5.4.2 0 .3.3.3.9v.5h.2l.2.1.2.1V2.1h17.8v-1h1.1v1h2.6v.4l.2 1 .3.5h65.5l.7-.7.4-.8.2-.6.2-1c.2-.4.4-.5.6-.5l1.1.4 1.5.9 1.5 1.1.8 1 .3.3.2.1.3.1h.3l.9.3v.6m-7.8 3.4l-.5-.5h-1.6l-.3-.3h-27.9c-.4.3-.6.6-.6.8v.3l3.7.1h7.6l9.5-.2 9.3-.2h.8M41.1 1.2h.2-.2m1.6 14.9l.3-1c0-.6-.1-1-.3-1.4-.2-.3-.6-.4-1.1-.4H38c-.4 0-.8.1-1.2.4-.3.3-.4.8-.4 1.4 0 .4.1.7.4 1 .3.3.7.5 1.2.5h3.6c.4 0 .8-.2 1.1-.5M37.5 1.3h-.2.2" />
    </svg>

